<svg width="24" height="28" viewBox="0 0 24 28" fill="none" xmlns="http://www.w3.org/2000/svg">
<path d="M21.8055 11.7151H21V11.6666H12V16.3333H17.6515C16.827 19.0499 14.6115 21 12 21C8.6865 21 6 17.8657 6 14C6 10.1342 8.6865 6.99998 12 6.99998C13.5295 6.99998 14.921 7.67315 15.9805 8.77273L18.809 5.47281C17.023 3.5309 14.634 2.33331 12 2.33331C6.4775 2.33331 2 7.55706 2 14C2 20.4429 6.4775 25.6666 12 25.6666C17.5225 25.6666 22 20.4429 22 14C22 13.2177 21.931 12.4541 21.8055 11.7151Z" fill="#FFC107"/>
<path d="M3.153 8.56973L6.4385 11.3808C7.3275 8.81298 9.4805 6.99998 12 6.99998C13.5295 6.99998 14.921 7.67315 15.9805 8.77273L18.809 5.47281C17.023 3.5309 14.634 2.33331 12 2.33331C8.159 2.33331 4.828 4.86323 3.153 8.56973Z" fill="#FF3D00"/>
<path d="M12 25.6666C14.583 25.6666 16.93 24.5134 18.7045 22.638L15.6095 19.5825C14.6055 20.4697 13.3575 21 12 21C9.399 21 7.1905 19.0651 6.3585 16.3648L3.0975 19.2961C4.7525 23.0743 8.1135 25.6666 12 25.6666Z" fill="#4CAF50"/>
<path d="M21.8055 11.7151H21V11.6667H12V16.3334H17.6515C17.2555 17.6383 16.536 18.7635 15.608 19.5831L15.6095 19.5819L18.7045 22.6374C18.4855 22.8696 22 19.8334 22 14C22 13.2178 21.931 12.4542 21.8055 11.7151Z" fill="#1976D2"/>
</svg>
