<svg width="46" height="46" viewBox="0 0 46 46" fill="none" xmlns="http://www.w3.org/2000/svg">
<circle cx="23" cy="23" r="22" fill="white" stroke="white"/>
<path d="M32.8055 18.7151H32V18.6666H23V23.3333H28.6515C27.827 26.0499 25.6115 28 23 28C19.6865 28 17 24.8657 17 21C17 17.1342 19.6865 14 23 14C24.5295 14 25.921 14.6731 26.9805 15.7727L29.809 12.4728C28.023 10.5309 25.634 9.33331 23 9.33331C17.4775 9.33331 13 14.5571 13 21C13 27.4429 17.4775 32.6666 23 32.6666C28.5225 32.6666 33 27.4429 33 21C33 20.2177 32.931 19.4541 32.8055 18.7151Z" fill="#FFC107"/>
<path d="M14.153 15.5697L17.4385 18.3808C18.3275 15.813 20.4805 14 23 14C24.5295 14 25.921 14.6731 26.9805 15.7727L29.809 12.4728C28.023 10.5309 25.634 9.33331 23 9.33331C19.159 9.33331 15.828 11.8632 14.153 15.5697Z" fill="#FF3D00"/>
<path d="M23 32.6666C25.583 32.6666 27.93 31.5134 29.7045 29.638L26.6095 26.5825C25.6055 27.4697 24.3575 28 23 28C20.399 28 18.1905 26.0651 17.3585 23.3648L14.0975 26.2961C15.7525 30.0743 19.1135 32.6666 23 32.6666Z" fill="#4CAF50"/>
<path d="M32.8055 18.7151H32V18.6667H23V23.3334H28.6515C28.2555 24.6383 27.536 25.7635 26.608 26.5831L26.6095 26.5819L29.7045 29.6374C29.4855 29.8696 33 26.8334 33 21C33 20.2178 32.931 19.4542 32.8055 18.7151Z" fill="#1976D2"/>
</svg>
