<svg width="75" height="75" viewBox="0 0 75 75" fill="none" xmlns="http://www.w3.org/2000/svg">
<g clip-path="url(#clip0_544_891)">
<mask id="mask0_544_891" style="mask-type:luminance" maskUnits="userSpaceOnUse" x="0" y="0" width="75" height="75">
<path d="M37.5 75C58.2107 75 75 58.2107 75 37.5C75 16.7893 58.2107 0 37.5 0C16.7893 0 0 16.7893 0 37.5C0 58.2107 16.7893 75 37.5 75Z" fill="white"/>
</mask>
<g mask="url(#mask0_544_891)">
<path d="M16.1133 151.758C60.6089 151.758 96.6797 115.687 96.6797 71.1914C96.6797 26.6958 60.6089 -9.375 16.1133 -9.375C-28.3823 -9.375 -64.4531 26.6958 -64.4531 71.1914C-64.4531 115.687 -28.3823 151.758 16.1133 151.758Z" fill="url(#paint0_radial_544_891)"/>
</g>
<path d="M48.0469 29.8828C49.6649 29.8828 50.9766 28.5711 50.9766 26.9531C50.9766 25.3351 49.6649 24.0234 48.0469 24.0234C46.4289 24.0234 45.1172 25.3351 45.1172 26.9531C45.1172 28.5711 46.4289 29.8828 48.0469 29.8828Z" fill="white"/>
<path d="M37.5 28.125C35.6458 28.125 33.8332 28.6748 32.2915 29.705C30.7498 30.7351 29.5482 32.1993 28.8386 33.9123C28.1291 35.6254 27.9434 37.5104 28.3051 39.329C28.6669 41.1475 29.5598 42.818 30.8709 44.1291C32.182 45.4402 33.8525 46.3331 35.671 46.6949C37.4896 47.0566 39.3746 46.8709 41.0877 46.1614C42.8007 45.4518 44.2649 44.2502 45.295 42.7085C46.3252 41.1668 46.875 39.3542 46.875 37.5C46.875 35.0136 45.8873 32.629 44.1291 30.8709C42.371 29.1127 39.9864 28.125 37.5 28.125ZM37.5 42.1875C36.5729 42.1875 35.6666 41.9126 34.8958 41.3975C34.1249 40.8824 33.5241 40.1504 33.1693 39.2938C32.8145 38.4373 32.7217 37.4948 32.9026 36.5855C33.0834 35.6762 33.5299 34.841 34.1854 34.1854C34.841 33.5299 35.6762 33.0834 36.5855 32.9026C37.4948 32.7217 38.4373 32.8145 39.2938 33.1693C40.1504 33.5241 40.8825 34.1249 41.3975 34.8958C41.9126 35.6666 42.1875 36.5729 42.1875 37.5C42.1875 38.7432 41.6936 39.9355 40.8146 40.8146C39.9355 41.6936 38.7432 42.1875 37.5 42.1875Z" fill="white"/>
<path d="M49.2188 18.75H25.7812C21.898 18.75 18.75 21.898 18.75 25.7812V49.2188C18.75 53.102 21.898 56.25 25.7812 56.25H49.2188C53.102 56.25 56.25 53.102 56.25 49.2188V25.7812C56.25 21.898 53.102 18.75 49.2188 18.75Z" stroke="white" stroke-width="4" stroke-miterlimit="10"/>
</g>
<defs>
<radialGradient id="paint0_radial_544_891" cx="0" cy="0" r="1" gradientUnits="userSpaceOnUse" gradientTransform="translate(16.1133 71.1914) scale(80.5664)">
<stop stop-color="#FFCA4F"/>
<stop offset="0.25" stop-color="#FD9C38"/>
<stop offset="0.38" stop-color="#FF451D"/>
<stop offset="0.7" stop-color="#F21A9A"/>
<stop offset="0.96" stop-color="#7131FA"/>
<stop offset="0.99" stop-color="#750EF7"/>
</radialGradient>
<clipPath id="clip0_544_891">
<rect width="75" height="75" fill="white"/>
</clipPath>
</defs>
</svg>
