<svg width="72" height="72" viewBox="0 0 72 72" fill="none" xmlns="http://www.w3.org/2000/svg">
<circle cx="36" cy="36" r="36" fill="#F61C0D"/>
<g clip-path="url(#clip0_544_890)">
<path d="M47.1079 22.5552H24.8921C20.5334 22.5552 17 26.0886 17 30.4473V41.5528C17 45.9115 20.5334 49.4449 24.8921 49.4449H47.1079C51.4666 49.4449 55 45.9115 55 41.5528V30.4473C55 26.0886 51.4666 22.5552 47.1079 22.5552ZM41.7705 36.5404L31.3795 41.4963C31.1026 41.6283 30.7828 41.4265 30.7828 41.1197V30.8982C30.7828 30.5871 31.111 30.3855 31.3884 30.5261L41.7795 35.7918C42.0884 35.9483 42.0831 36.3913 41.7705 36.5404Z" fill="white"/>
</g>
<defs>
<clipPath id="clip0_544_890">
<rect width="38" height="38" fill="white" transform="translate(17 17)"/>
</clipPath>
</defs>
</svg>
